<svg width="319" height="80" viewBox="0 0 319 80" fill="none" xmlns="http://www.w3.org/2000/svg">
<path d="M43.3237 5.55477C44.7974 4.82368 46.2458 4.03509 47.7499 3.37328C51.0316 1.92938 54.4561 0.938058 58.007 0.427892C59.2779 0.245303 60.5657 0.165944 61.8486 0.0860798C62.8842 0.0216131 63.9256 -0.0203957 64.9619 0.0101981C68.7548 0.122178 72.4796 0.621135 76.0369 2.04218C77.0165 2.43352 77.8779 2.93784 78.3878 3.90469C78.4125 4.75753 78.3878 3.96642 78.3878 4.79039C78.3878 5.10711 78.1264 6.73536 78.1111 6.80949C76.7478 13.4041 73.9685 19.2286 69.9066 24.555C67.6072 27.5703 64.9522 30.2397 62.0131 32.7025C59.8571 34.4648 57.5903 35.9799 55.1906 37.2845C53.5854 38.1572 51.9265 38.931 50.2916 39.7491C49.1533 40.1993 48.0289 40.6894 46.8739 41.0916C44.2242 42.0145 41.555 42.8814 38.9027 43.797C37.3904 44.319 35.9371 44.9757 34.6517 45.9508C32.3819 47.6724 31.1592 50.0283 30.5957 52.7607C30.1727 54.8115 29.8691 56.8889 29.3921 58.9263C27.7874 65.7811 24.0063 71.1882 18.3308 75.3046C18.2031 75.3973 18.0649 75.4753 17.8955 75.5585C17.8593 75.5568 17.8395 75.5426 17.8395 75.5426C19.3037 73.1553 20.6 70.6872 21.5141 68.0293C22.1033 66.3164 22.5766 64.5726 22.7938 62.7766C22.9418 61.5522 22.9539 60.3114 23.0223 59.0777C23.0287 58.9624 23.0022 58.8453 22.9848 58.6659C22.9039 58.7736 22.8496 58.8261 22.8185 58.8899C20.7313 63.1758 17.7431 66.7713 14.2608 69.9746C10.0482 73.8497 5.4362 77.1738 0.382566 79.8741C0.269992 79.9343 0.153616 79.9873 0 80C0.275275 79.6776 0.558113 79.3613 0.824644 79.0319C3.28398 75.9918 5.20045 72.6312 6.57232 68.9786C7.46113 66.6122 8.19684 64.1884 9.01008 61.7934C10.1054 58.5675 11.6262 55.5494 13.4743 52.6918C13.7893 52.2048 14.0868 51.7065 14.3908 51.2124C14.4178 51.1686 14.4328 51.1173 14.4995 50.9622C11.7549 52.2465 9.43442 53.9631 7.35297 56.01C5.26798 58.0603 3.4929 60.3571 2.07806 62.928C2.03899 62.914 1.99993 62.9001 1.96086 62.8861C2.14643 61.7635 2.28822 60.6315 2.52507 59.5198C3.61328 54.4122 6.48803 50.4784 10.5985 47.3778C12.8059 45.7126 15.2352 44.4607 17.8527 43.5722C17.9621 43.5351 18.0682 43.4881 18.1946 43.4383C18.0975 42.9821 17.4329 42.5544 17.4329 42.5544C16.6685 42.1003 15.8101 41.9462 14.9478 41.8173C14.4284 41.7396 13.906 41.6816 13.3205 41.6065C13.4192 41.4656 13.4902 41.349 13.5756 41.2442C15.6686 38.6751 18.2057 36.6388 21.083 35.0168C21.3455 34.8689 21.4853 34.6867 21.5851 34.4074C22.7528 31.1416 24.0494 27.9287 25.5705 24.8094C25.6902 24.5639 25.8029 24.3151 25.9462 24.0275C26.0376 23.8724 26.1055 23.7596 26.1652 23.6426C29.2824 17.5301 33.6231 12.4494 39.1263 8.36805C40.4776 7.36584 41.9221 6.48916 43.3237 5.55477ZM40.7519 25.0946C42.4674 23.1363 44.183 21.178 45.8985 19.2197C45.6212 19.2221 45.3805 19.2795 45.1474 19.3591C41.1215 20.7336 37.7088 23.0608 34.7296 26.0634C31.2676 29.5527 28.5486 33.5641 26.3501 37.9448C24.6042 41.4239 23.2259 45.038 22.4187 48.8505C22.1364 50.1836 21.9756 51.5449 21.8118 52.8997C21.715 53.7002 21.721 54.5131 21.6788 55.3608C21.7647 55.3114 21.7945 55.3048 21.8032 55.2876C21.8801 55.1347 21.9583 54.9821 22.0269 54.8253C23.7686 50.845 25.9912 47.1732 28.9586 43.9747C31.3932 41.3506 34.116 39.0567 37.0647 37.0442C39.8092 35.1712 42.6315 33.4127 45.3972 31.5703C46.2171 31.0241 46.9885 30.3954 47.7296 29.7447C48.153 29.373 48.4706 28.8808 48.8358 28.4428C48.8027 28.3922 48.7696 28.3415 48.7366 28.2909C44.4745 30.5826 39.9883 31.9881 35.1241 31.9001C35.1002 31.8632 35.0763 31.8263 35.0524 31.7895C36.94 29.5721 38.8277 27.3548 40.7519 25.0946ZM54.5752 13.7419C53.7033 11.1264 53.7444 8.44522 54.0327 5.74113C53.941 5.79854 53.8927 5.85809 53.8469 5.91949C51.2275 9.42533 50.9819 14.2109 53.2779 17.9402C55.2355 21.12 58.107 22.9937 61.7634 23.6668C62.6175 23.824 63.4887 23.888 64.352 23.9949C64.3591 23.9521 64.3661 23.9093 64.3732 23.8665C63.6378 23.4654 62.8865 23.0907 62.1696 22.6588C58.6651 20.5473 55.9559 17.7485 54.5752 13.7419ZM67.3213 9.53025C67.7409 8.91574 67.7335 8.21323 67.5929 7.54932C67.349 6.39762 66.1036 5.6406 64.8526 5.79115C63.7461 5.9243 62.7503 7.0427 62.7408 8.16275C62.7317 9.25201 63.4461 10.2456 64.4886 10.5934C65.5097 10.9341 66.5799 10.5466 67.3213 9.53025Z" fill="url(#paint0_linear_136_410)"/>
<path d="M43.285 5.55264C41.9143 6.49317 40.4698 7.36985 39.1185 8.37206C33.6153 12.4534 29.2746 17.5341 26.1574 23.6466C26.0977 23.7636 26.0297 23.8764 25.9408 24.0031C26.0828 23.3012 26.2574 22.589 26.4149 21.8731C26.7016 20.5705 26.9122 19.2539 26.8551 17.9175C26.7972 16.5612 26.7172 15.202 26.2085 13.9136C25.4303 11.9425 23.9038 10.7495 22.0395 9.92384C21.2407 9.57011 20.4118 9.28461 19.5557 8.95223C19.664 8.87257 19.7716 8.78727 19.8852 8.71074C21.7728 7.43851 23.8531 6.59248 26.0457 6.04056C27.4708 5.68183 28.9241 5.43053 30.3711 5.16554C30.9342 5.06241 31.514 5.02182 32.0874 5.00814C33.9432 4.96388 35.8042 4.85219 37.6546 4.94291C39.5265 5.03469 41.388 5.33662 43.285 5.55264Z" fill="url(#paint1_linear_136_410)"/>
<path d="M50.2983 39.7794C51.9252 38.9331 53.5841 38.1592 55.1893 37.2866C57.589 35.982 59.8558 34.4668 61.9966 32.7266C61.2296 37.6639 59.0526 41.8895 55.4736 45.3943C53.7694 47.0632 51.8734 48.474 49.8135 49.6698C49.785 49.6864 49.748 49.6886 49.7913 49.6769C50.1266 48.6524 50.546 47.6153 50.7975 46.539C51.1003 45.2432 51.1678 43.9172 51.0329 42.5741C50.9352 41.6018 50.6988 40.6904 50.2983 39.7794Z" fill="url(#paint2_linear_136_410)"/>
<path d="M243.384 37.6898C244.939 38.3498 244.971 38.4705 245.021 40.1531C245.129 43.7966 245.289 47.4386 245.428 51.0813C245.517 51.0985 245.606 51.1158 245.695 51.1331C246.183 50.0395 246.688 48.9527 247.158 47.8512C248.303 45.1668 249.423 42.4712 250.579 39.791C250.789 39.3029 251.076 38.8327 251.403 38.4134C251.966 37.6931 252.745 37.618 253.595 37.787C254.459 37.9588 254.745 38.5745 254.832 39.3323C254.89 39.836 254.871 40.3484 254.887 40.8569C254.992 44.138 255.096 47.419 255.201 50.7001C255.295 50.7331 255.388 50.7661 255.481 50.7991C256.513 49.1538 257.555 47.5142 258.562 45.8538C258.656 45.6985 258.559 45.405 258.506 45.1863C258.132 43.6241 257.962 42.0613 258.489 40.4994C259.178 38.4531 261.008 37.3141 263.001 37.6748C263.888 37.8354 264.598 38.3325 264.584 39.2338C264.564 40.5856 264.344 41.9387 264.142 43.2812C264.06 43.8265 263.802 44.3454 263.625 44.8752C264.667 45.2141 264.846 45.1123 265.159 44.2316C266.421 40.6891 268.807 38.4093 272.581 37.7463C276.066 37.1342 279.592 39.6767 280.387 43.3499C280.487 43.8131 280.561 44.2818 280.664 44.8389C281.359 44.7968 282.034 44.756 282.643 44.7191C283.158 42.9798 283.606 41.3095 284.152 39.672C284.646 38.1928 286.707 37.3531 288.127 37.9603C288.761 38.2311 288.698 38.7453 288.586 39.249C288.109 41.3985 287.608 43.5426 287.125 45.6908C287.034 46.0946 286.988 46.5083 287.01 46.9355C288.302 44.0521 289.761 41.3237 292.126 39.1732C293.247 38.1537 294.535 37.6549 296.04 37.6994C297.637 37.7467 298.371 38.4235 298.357 40.0178C298.344 41.5111 298.179 43.0026 298.112 44.4962C298.086 45.06 297.71 45.8447 298.69 45.978C299.733 46.12 300.455 45.4381 300.536 44.5C301.118 37.774 301.67 31.0356 304.495 24.7624C305.401 22.7494 306.588 20.9233 308.52 19.723C311.225 18.0413 315.002 18.7492 315.789 22.8218C316.437 26.174 315.537 29.2766 314.062 32.2471C312.235 35.928 309.625 39.0436 306.851 42.0273C305.289 43.7069 305.073 44.2288 305.272 46.7715C305.435 46.5042 305.535 46.3603 305.615 46.2056C306.942 43.6348 308.552 41.2697 310.776 39.3888C311.985 38.3658 313.362 37.6413 315.026 37.8183C317.485 38.0798 319.165 40.3596 318.791 42.7943C318.349 45.6682 316.677 47.6267 314.212 48.9455C313.368 49.3972 313.326 49.7916 313.771 50.5301C314.523 51.7781 315.294 52.1906 316.76 51.8302C317.445 51.6618 318.037 51.7848 318.327 52.3206C318.563 52.7559 318.625 53.4237 318.479 53.9007C318.075 55.2177 316.977 55.8068 315.701 55.9842C313.376 56.3074 311.38 55.6381 310.147 53.558C309.477 52.4281 308.946 51.1573 308.651 49.881C308.367 48.6504 308.723 48.239 309.941 47.7984C311.256 47.3229 312.477 46.7424 313.361 45.6143C313.917 44.9059 314.271 44.1405 314.014 43.2101C313.782 42.3667 313.166 41.9305 312.401 42.3154C311.627 42.7044 310.878 43.2669 310.311 43.921C308.032 46.5522 306.858 49.7408 305.922 53.0335C305.792 53.4918 305.666 53.9525 305.507 54.4012C305.062 55.6588 304.288 56.1648 302.983 56.0753C301.74 55.99 301.072 55.4315 300.868 54.0641C300.652 52.6209 300.575 51.1568 300.455 49.8824C299.202 50.0628 297.889 50.4015 296.575 50.4082C294.263 50.42 292.948 48.8813 293.094 46.5792C293.136 45.9222 293.243 45.2673 293.248 44.6109C293.25 44.3504 293.122 43.9961 292.928 43.8581C292.788 43.7578 292.376 43.865 292.204 44.0157C291.782 44.3859 291.364 44.7919 291.06 45.2589C289.358 47.872 288.484 50.8136 287.777 53.8107C287.41 55.3678 286.642 56.0537 285.128 56.064C283.835 56.0727 282.962 55.4026 282.721 53.8988C282.445 52.1679 282.37 50.4047 282.206 48.6344C281.674 48.6344 281.056 48.6344 280.563 48.6344C279.889 49.9627 279.381 51.2816 278.612 52.4244C275.984 56.3266 271.444 57.271 267.856 54.7688C266.181 53.6011 265.361 51.9262 264.947 49.9983C264.867 49.6244 264.804 49.2469 264.722 48.8136C264.529 48.8136 264.34 48.8577 264.181 48.8069C262.206 48.1743 261.22 49.2127 260.298 50.8086C259.454 52.2684 258.312 53.5726 257.189 54.8463C256.722 55.3757 256.009 55.8471 255.33 56.0018C252.814 56.5749 251.754 55.6044 251.486 53.5554C251.257 51.8086 251.15 50.0459 250.985 48.2439C250.89 48.4034 250.771 48.5744 250.681 48.7594C249.91 50.3394 249.212 51.9605 248.349 53.4884C247.877 54.3249 247.238 55.1502 246.48 55.7247C245.011 56.8378 243.041 56.3836 241.946 54.7778C241.518 54.1511 241.254 53.4132 240.999 52.8959C239.586 53.7666 238.184 54.8872 236.592 55.5629C232.169 57.4408 227.835 55.1803 226.643 50.535C226.598 50.3622 226.546 50.1913 226.471 49.9249C224.828 52.483 222.663 54.3359 219.88 55.3501C216.456 56.5983 213.066 56.6689 209.994 54.3861C209.105 53.7261 208.441 52.764 207.622 51.8832C207.525 51.9934 207.343 52.2028 207.16 52.4112C204.861 55.0252 202.01 56.3276 198.499 56.0165C194.628 55.6736 192.135 52.2215 192.62 47.7276C192.863 45.4756 193.284 43.2402 193.689 41.009C194.271 37.8089 194.938 34.6243 195.507 31.4221C195.64 30.6695 195.614 29.8608 195.508 29.0991C195.293 27.545 194.221 26.8336 192.679 27.154C191.327 27.435 190.193 28.1327 189.199 29.0759C186.399 31.7319 184.906 35.1339 183.747 38.711C182.261 43.2942 181.52 48.0436 180.657 52.7667C180.517 53.5327 180.188 54.3182 179.752 54.9631C179.085 55.949 177.847 56.2939 176.8 55.9239C175.691 55.5319 175.043 54.6725 175.11 53.536C175.215 51.7556 175.476 49.9817 175.729 48.2134C176.572 42.3301 177.446 36.4513 178.292 30.5685C178.368 30.0387 178.355 29.4917 178.339 28.9539C178.288 27.1968 177.177 26.3634 175.584 27.1327C174.324 27.7408 173.214 28.6932 172.117 29.5906C171.502 30.0943 171.107 30.8651 170.502 31.385C170.126 31.7072 169.501 32.0027 169.058 31.9219C168.354 31.7934 167.88 31.1567 167.92 30.3991C167.955 29.7615 168.048 29.0486 168.364 28.5174C170.775 24.4685 174.199 22.016 179.077 22.0635C181.675 22.0888 183.516 23.969 183.539 26.5741C183.548 27.6477 183.455 28.726 183.345 29.7956C183.236 30.8514 183.046 31.8988 183.094 33.0223C183.187 32.753 183.273 32.4806 183.376 32.2149C184.792 28.5553 186.881 25.4213 190.376 23.4269C192.245 22.3604 194.262 21.8689 196.408 22.2765C199.305 22.8264 201.398 25.2825 201.285 28.3885C201.195 30.8802 200.766 33.3711 200.338 35.8363C199.69 39.5686 198.861 43.2695 198.226 47.0037C198.068 47.9333 198.219 48.9786 198.478 49.9007C198.826 51.1399 199.89 51.646 201.149 51.4455C203.625 51.051 205.262 49.3731 206.858 47.6654C207.075 47.4335 207.003 46.9252 207.051 46.5432C207.562 42.4742 209.727 39.628 213.517 38.1302C215.631 37.295 217.751 37.4411 219.607 38.9469C221.175 40.2198 221.757 41.8519 221.208 43.8171C220.471 46.4549 218.865 48.3586 216.286 49.3529C215.121 49.8018 213.916 50.1453 212.633 50.5682C213.317 51.6367 214.388 51.9887 215.558 52.0568C218.338 52.2185 220.578 50.9839 222.586 49.2118C223.192 48.6774 223.74 48.0662 224.394 47.6033C224.804 47.3132 225.363 47.2343 225.943 47.0298C225.943 45.3487 225.943 43.4545 225.943 41.4829C225.275 41.4829 224.593 41.5068 223.913 41.4771C222.946 41.4349 222.522 40.9799 222.508 40.0093C222.503 39.6508 222.495 39.2841 222.56 38.9344C222.707 38.1379 223.08 37.541 224.001 37.4894C224.805 37.4445 225.607 37.3742 226.344 37.3199C226.997 34.8878 227.57 32.4551 228.311 30.075C229.059 27.675 230.066 25.3606 231.779 23.4688C232.428 22.7523 233.226 22.1026 234.078 21.6514C236.284 20.4825 238.456 21.335 239.445 23.6358C240.192 25.3726 240.027 27.14 239.62 28.9141C238.836 32.3288 237.251 35.2716 234.437 37.6376C234.87 37.6376 235.224 37.6255 235.577 37.6397C237.051 37.6989 238.524 37.7659 240.075 37.9272C240.602 39.214 240.059 41.0758 238.385 41.1671C237.672 41.206 236.962 41.3417 236.25 41.3524C234.436 41.3798 232.622 41.3615 230.737 41.3615C230.737 42.3565 230.67 43.2825 230.752 44.1953C230.91 45.9711 230.995 47.7763 231.4 49.5011C231.853 51.4285 233.369 52.1608 235.332 51.773C237.326 51.3792 238.716 50.0805 240.022 48.6717C240.264 48.41 240.411 47.9556 240.411 47.5901C240.411 45.2896 240.321 42.9888 240.338 40.6886C240.345 39.6838 240.46 38.655 241.271 37.8899C241.864 37.8238 242.457 37.7578 243.171 37.6994C243.323 37.7014 243.354 37.6956 243.384 37.6898ZM311.129 30.0521C311.291 29.5735 311.487 29.1033 311.611 28.6148C312.016 27.012 312.32 25.3845 311.789 23.7647C311.65 23.3405 311.213 22.787 310.846 22.7308C310.503 22.6783 309.922 23.1232 309.709 23.4985C309.199 24.399 308.776 25.3638 308.438 26.3442C307.081 30.2797 306.498 34.3791 305.916 38.6559C308.047 35.9535 309.824 33.2277 311.129 30.0521ZM273.985 45.7568C273.643 44.539 273.208 43.329 273.696 42.0109C272.55 41.8475 271.725 42.4147 271 43.1469C269.366 44.7966 269.085 48.7735 270.439 50.6721C271.591 52.2868 273.727 52.3809 274.904 50.7818C275.382 50.1319 275.648 49.3076 275.913 48.5297C275.994 48.2943 275.821 47.8926 275.641 47.6635C275.15 47.0386 274.594 46.4651 273.985 45.7568ZM231.519 35.5784C231.469 35.8909 231.419 36.2034 231.337 36.715C233.617 34.4584 235.472 32.1609 235.992 29.0779C236.138 28.2159 236.105 27.2963 235.979 26.4285C235.925 26.0613 235.45 25.5347 235.113 25.4911C234.771 25.4468 234.288 25.8435 234.007 26.1683C233.728 26.4899 233.56 26.9468 233.455 27.372C232.794 30.0537 232.164 32.7431 231.519 35.5784ZM216.954 43.2139C216.658 41.8338 215.81 41.4041 214.543 41.991C212.746 42.823 211.454 45.4513 211.896 47.4743C212.862 47.0774 213.846 46.7393 214.769 46.2786C215.962 45.6825 216.861 44.8054 216.954 43.2139Z" fill="white"/>
<ellipse cx="119.23" cy="30.5943" rx="3.23424" ry="2.96472" fill="white"/>
<path d="M157.117 26.5154C156.532 30.1563 154.816 33.1683 152.526 35.8676C151.133 37.5087 149.649 39.079 148.123 40.597C147.365 41.3513 146.835 42.0846 146.891 43.2101C146.933 44.0544 146.805 44.9071 146.75 45.7984C147.745 44.1681 148.635 42.5669 149.665 41.0615C150.689 39.5662 152.013 38.3181 153.661 37.5361C154.383 37.1936 155.263 37.0145 156.062 37.0403C158.002 37.103 158.901 38.3132 158.575 40.228C158.244 42.1689 157.81 44.0963 157.573 46.048C157.296 48.3321 157.192 50.637 156.99 52.9309C156.933 53.5806 156.908 54.2669 156.674 54.8594C156.3 55.8044 155.037 56.2438 153.721 56.0332C152.538 55.8439 151.866 55.2013 151.635 54.1275C151.212 52.1555 151.824 50.2703 152.097 48.3601C152.278 47.092 152.586 45.8423 152.8 44.5781C152.866 44.1899 152.811 43.7812 152.811 43.3818C152.713 43.3374 152.615 43.2929 152.518 43.2485C152.071 43.7353 151.585 44.1919 151.185 44.714C149.342 47.1158 148.227 49.8686 147.335 52.7333C147.117 53.4351 146.827 54.1488 146.413 54.7485C145.627 55.8874 143.97 56.2749 142.712 55.7249C141.855 55.3506 141.61 54.6061 141.549 53.6623C141.31 53.7774 141.117 53.8842 140.913 53.9665C139.895 54.3788 138.899 54.8669 137.85 55.1729C136.361 55.6071 134.827 55.7118 133.391 56.5316C131.969 57.344 130.305 57.0245 128.828 56.2537C127.458 55.5392 126.757 54.2671 127.074 53.151C127.439 51.8637 128.975 50.8346 130.427 50.9451C131.165 51.0014 131.898 51.1281 132.857 51.2518C132.731 50.6235 132.709 50.0612 132.5 49.5809C132.168 48.8193 131.715 48.1101 131.305 47.383C130.914 46.6898 130.514 46.0021 130.083 45.2499C129.472 46.3082 128.967 47.4254 128.246 48.3791C126.846 50.2322 125.426 52.0916 123.82 53.7624C122.501 55.1359 120.797 55.9568 118.781 55.9617C116.988 55.9661 115.766 55.1312 114.994 53.5852C114.212 52.0204 113.916 50.3098 114.154 48.6129C114.605 45.396 115.146 42.1853 115.825 39.0094C116.25 37.0251 117.74 36.3275 119.667 36.9064C120.436 37.1374 120.816 37.8152 120.646 38.87C120.257 41.2859 119.781 43.6882 119.422 46.1081C119.235 47.3727 119.138 48.6633 119.148 49.9411C119.158 51.2894 120.165 51.8346 121.184 50.9514C122.524 49.7898 123.896 48.5303 124.809 47.0401C126.548 44.2013 128.014 41.1902 129.512 38.21C130.501 36.2423 132.177 35.3962 134.27 35.9968C134.904 36.1787 135.148 36.7445 134.847 37.5317C134.582 38.2259 134.25 38.8969 133.914 39.5617C133.254 40.8718 133.394 42.0952 134.253 43.2605C134.892 44.1262 135.556 44.9753 136.158 45.8657C137.239 47.4629 137.954 49.1706 137.457 51.2746C137.769 51.1809 138.004 51.161 138.18 51.0485C138.833 50.6315 139.449 50.1554 140.11 49.7545C141.172 49.1114 141.407 48.1985 141.447 46.9842C141.677 39.9765 142.374 33.0344 144.997 26.4353C145.828 24.3429 146.868 22.3676 148.402 20.6902C149.408 19.5903 150.553 18.6617 152.05 18.3779C154.75 17.8659 156.961 19.5832 157.183 22.4099C157.288 23.7435 157.16 25.0953 157.117 26.5154ZM147.634 36.6854C149.765 34.0556 151.829 31.3646 152.737 28.0392C153.1 26.7105 153.152 25.2844 153.221 23.8965C153.241 23.5075 152.899 22.8776 152.576 22.7579C152.261 22.6414 151.638 22.9291 151.362 23.2322C150.892 23.7492 150.456 24.3732 150.238 25.0295C149.506 27.2305 148.781 29.4427 148.241 31.6954C147.849 33.3291 147.753 35.034 147.434 36.6596C147.439 36.713 147.445 36.7665 147.45 36.8199C147.47 36.7753 147.49 36.7307 147.634 36.6854Z" fill="white"/>
<path d="M89.3363 51.2663C92.1825 51.8697 94.2209 50.8763 95.4257 48.3192C96.5285 45.9785 96.7149 43.437 97.0399 40.9238C96.2403 40.829 95.4584 40.8083 94.7137 40.631C93.6182 40.3702 92.9969 39.3954 93.0841 38.2648C93.1848 36.96 93.7219 36.3535 94.9722 36.152C95.3847 36.0855 95.8001 36.0251 96.2164 35.9988C96.6291 35.9727 97.0447 35.9931 97.5117 35.9931C97.9353 32.3368 98.3506 28.7529 98.7853 25.0009C97.8946 25.1271 97.0205 25.1809 96.1837 25.3864C94.9753 25.6831 93.7351 25.9617 92.6138 26.4771C90.4679 27.4635 89.8785 29.3119 90.8563 31.4665C90.9302 31.6292 91.008 31.7915 91.0986 31.9453C91.5154 32.6527 91.7703 33.354 91.1433 34.0894C90.4994 34.8446 89.6182 35.1094 88.6414 34.8131C87.4725 34.4585 86.7335 33.6401 86.2193 32.5745C84.7155 29.4583 85.5353 25.9225 88.2642 23.6974C90.7337 21.6838 93.6696 20.8459 96.73 20.3541C103.092 19.332 109.5 19.6033 115.902 19.727C117.279 19.7536 118.656 19.7814 120.032 19.8312C121.452 19.8827 122.072 20.3498 122.322 21.5054C122.597 22.7768 122.009 24.4642 121.069 24.9248C120.767 25.0725 120.372 25.0757 120.021 25.0703C115.142 24.9945 110.263 24.9056 105.384 24.8205C105.211 24.8174 105.038 24.8201 104.8 24.8201C104.37 28.5497 103.948 32.2224 103.515 35.9757C105.034 35.9757 106.526 35.9756 108.017 35.9757C109.035 35.9758 110.053 35.9647 111.071 35.9792C112.559 36.0005 113.126 36.4133 113.269 37.5452C113.455 39.0228 112.702 40.368 111.482 40.6676C111.053 40.773 110.598 40.8101 110.154 40.8125C107.734 40.826 105.314 40.819 103.067 40.819C102.431 43.461 102.006 46.1257 101.142 48.6394C98.7115 55.7118 90.2947 58.1537 84.2852 53.6365C83.1625 52.7925 82.1997 51.7774 82.0487 50.3153C81.9823 49.6713 82.1064 48.9177 82.4003 48.3455C82.9913 47.1947 84.1478 47.1244 84.9111 48.1632C86.0296 49.6854 87.3868 50.8209 89.3363 51.2663Z" fill="white"/>
<defs>
<linearGradient id="paint0_linear_136_410" x1="65.7986" y1="-8.11596" x2="18.8052" y2="79.9718" gradientUnits="userSpaceOnUse">
<stop stop-color="#066EFF"/>
<stop offset="0.216346" stop-color="#067AFF"/>
<stop offset="0.576923" stop-color="#233AFF"/>
<stop offset="1" stop-color="#D901F5"/>
</linearGradient>
<linearGradient id="paint1_linear_136_410" x1="21.6875" y1="7.88243" x2="33.818" y2="20.4158" gradientUnits="userSpaceOnUse">
<stop stop-color="#1F17D5"/>
<stop offset="1" stop-color="#590CE7"/>
</linearGradient>
<linearGradient id="paint2_linear_136_410" x1="52.7721" y1="36.8604" x2="55.8997" y2="49.648" gradientUnits="userSpaceOnUse">
<stop stop-color="#1F17D5"/>
<stop offset="1" stop-color="#590CE7"/>
</linearGradient>
</defs>
</svg>
